<svg xmlns="http://www.w3.org/2000/svg" width="24" height="25" viewBox="0 0 24 25" fill="none"><g clip-path="url(#clip0_3314_11100)"><path d="M22.7144 9.0045C22.3977 8.02388 22.5327 6.55186 21.7096 5.41528C20.88 4.26975 19.4371 3.94416 18.6224 3.34828C17.8162 2.75869 17.0662 1.47567 15.7102 1.03317C14.3924 0.603141 13.0448 1.18669 12 1.18669C10.9553 1.18669 9.60783 0.603 8.2898 1.03313C6.93398 1.47553 6.18337 2.75883 5.37773 3.34814C4.56389 3.94331 3.11995 4.2698 2.2905 5.41514C1.46808 6.55078 1.60172 8.02617 1.28559 9.00445C0.98475 9.93553 0 11.053 0 12.5001C0 13.9481 0.983625 15.0613 1.28559 15.9957C1.60228 16.9763 1.46728 18.4484 2.29041 19.5849C3.11995 20.7305 4.56277 21.0561 5.37759 21.652C6.18361 22.2415 6.93375 23.5246 8.2898 23.967C9.6067 24.3968 10.9564 23.8135 12 23.8135C13.0422 23.8135 14.395 24.3962 15.7102 23.9671C17.0661 23.5247 17.8162 22.2417 18.6223 21.6521C19.4361 21.0569 20.88 20.7304 21.7095 19.5851C22.532 18.4494 22.3982 16.9741 22.7144 15.9958C23.0153 15.0646 24 13.9472 24 12.5001C24 11.0522 23.0166 9.93937 22.7144 9.0045ZM20.9303 15.4192C20.5612 16.5618 20.6579 17.8405 20.191 18.4852C19.7178 19.1385 18.4748 19.4369 17.5155 20.1385C16.5668 20.8323 15.9019 21.9322 15.1286 22.1845C14.397 22.4233 13.2046 21.9384 12 21.9384C10.7866 21.9384 9.60661 22.4243 8.87147 22.1845C8.09822 21.9322 7.43423 20.8331 6.4845 20.1385C5.53097 19.4411 4.28081 19.1366 3.80902 18.4851C3.34364 17.8425 3.43669 16.555 3.0698 15.4193C2.71017 14.3065 1.875 13.343 1.875 12.5001C1.875 11.6564 2.70942 10.6962 3.0697 9.58102C3.43884 8.43848 3.34214 7.15969 3.80902 6.51502C4.28189 5.86214 5.52591 5.56275 6.4845 4.86169C7.4362 4.16564 8.09695 3.06844 8.87138 2.81573C9.60239 2.57723 10.7986 3.06178 12 3.06178C13.2156 3.06178 14.3926 2.57559 15.1285 2.81573C15.9017 3.06802 16.5662 4.16752 17.5155 4.86173C18.4689 5.55909 19.7192 5.86364 20.191 6.51506C20.6565 7.15777 20.5629 8.44402 20.9302 9.58092V9.58097C21.2898 10.6937 22.125 11.6573 22.125 12.5001C22.125 13.3438 21.2906 14.304 20.9303 15.4192ZM16.3192 9.49097C16.6853 9.85711 16.6853 10.4507 16.3192 10.8168L11.6267 15.5092C11.2606 15.8754 10.667 15.8753 10.3009 15.5092L7.68084 12.8892C7.3147 12.5231 7.31466 11.9295 7.6808 11.5634C8.04694 11.1973 8.64061 11.1973 9.00661 11.5634L10.9638 13.5205L14.9933 9.49102C15.3594 9.12488 15.9531 9.12488 16.3192 9.49097Z" fill="#101010" fill-opacity="0.8"></path></g><defs><clipPath id="clip0_3314_11100"><rect width="24" height="24" fill="white" transform="translate(0 0.5)"></rect></clipPath></defs></svg>